<svg xmlns="http://www.w3.org/2000/svg" xmlns:xlink="http://www.w3.org/1999/xlink" width="500" zoomAndPan="magnify" viewBox="0 0 375 374.999991" height="500" preserveAspectRatio="xMidYMid meet" version="1.0"><defs><g/></defs><g fill="#000000" fill-opacity="1"><g transform="translate(107.450935, 247.891585)"><g><path d="M 150.03125 -120.203125 C 149.394531 -122.921875 148.550781 -124.851562 147.5 -126 C 146.457031 -127.15625 144.894531 -127.734375 142.8125 -127.734375 L 54.296875 -127.734375 L 54.296875 -87.875 L 111.421875 -87.875 C 112.460938 -87.875 113.296875 -88.445312 113.921875 -89.59375 C 114.554688 -90.75 115.289062 -92.6875 116.125 -95.40625 L 118.953125 -95.40625 L 118.953125 -57.75 L 116.125 -57.75 C 115.5 -60.46875 114.710938 -62.398438 113.765625 -63.546875 C 112.828125 -64.703125 111.414062 -65.28125 109.53125 -65.28125 L 54.296875 -65.28125 L 54.296875 -7.53125 C 54.296875 -6.0625 54.921875 -5.066406 56.171875 -4.546875 C 57.429688 -4.023438 59.316406 -3.453125 61.828125 -2.828125 L 61.828125 0 L 20.40625 0 L 20.40625 -2.828125 C 20.820312 -2.828125 21.757812 -2.984375 23.21875 -3.296875 C 24.6875 -3.609375 25.835938 -4.128906 26.671875 -4.859375 C 27.515625 -5.597656 27.9375 -6.488281 27.9375 -7.53125 L 27.9375 -142.8125 C 27.9375 -144.269531 27.304688 -145.257812 26.046875 -145.78125 C 24.796875 -146.3125 22.914062 -146.890625 20.40625 -147.515625 L 20.40625 -150.34375 L 145.3125 -150.34375 C 147.40625 -150.34375 148.976562 -152.851562 150.03125 -157.875 L 153.15625 -157.875 L 153.15625 -120.203125 Z M 150.03125 -120.203125 "/></g></g></g></svg>