<svg xmlns="http://www.w3.org/2000/svg" xmlns:xlink="http://www.w3.org/1999/xlink" width="500" zoomAndPan="magnify" viewBox="0 0 375 374.999991" height="500" preserveAspectRatio="xMidYMid meet" version="1.0"><defs><g/></defs><g fill="#000000" fill-opacity="1"><g transform="translate(89.387377, 280.483876)"><g><path d="M 53.640625 -193.40625 L 53.640625 -7.65625 C 53.640625 -2.550781 52.109375 1.429688 49.046875 4.296875 C 46.179688 6.953125 40.148438 8.378906 30.953125 8.578125 L 30.953125 19 L 97.15625 19 L 97.15625 8.578125 C 87.351562 8.578125 81.125 7.25 78.46875 4.59375 C 75.601562 1.738281 74.273438 -2.34375 74.484375 -7.65625 L 74.484375 -99.3125 L 109.421875 -99.3125 C 113.304688 -99.3125 116.578125 -97.367188 119.234375 -93.484375 C 121.273438 -89.597656 122.394531 -78.664062 122.59375 -60.6875 L 133.015625 -60.6875 L 133.015625 -146.8125 L 122.59375 -146.8125 C 122.59375 -129.644531 121.367188 -119.125 118.921875 -115.25 C 116.671875 -111.570312 113.503906 -109.734375 109.421875 -109.734375 L 74.484375 -109.734375 L 74.484375 -193.40625 C 74.484375 -198.3125 75.8125 -202.191406 78.46875 -205.046875 C 81.125 -207.503906 87.351562 -208.734375 97.15625 -208.734375 L 134.25 -208.734375 C 141.195312 -208.734375 147.222656 -205.257812 152.328125 -198.3125 C 157.234375 -192.175781 161.832031 -179.710938 166.125 -160.921875 L 174.40625 -159.375 L 167.046875 -219.15625 L 30.953125 -219.15625 L 30.953125 -208.734375 C 41.578125 -208.734375 48.21875 -207.300781 50.875 -204.4375 C 52.71875 -201.988281 53.640625 -198.3125 53.640625 -193.40625 Z M 53.640625 -193.40625 "/></g></g></g></svg>