<svg xmlns="http://www.w3.org/2000/svg" xmlns:xlink="http://www.w3.org/1999/xlink" width="1920" zoomAndPan="magnify" viewBox="0 0 1440 809.999993" height="1080" preserveAspectRatio="xMidYMid meet" version="1.0"><defs><g/></defs><g fill="#000000" fill-opacity="1"><g transform="translate(54.079464, 445.205843)"><g><path d="M 19.527344 -139.492188 L 19.527344 0 L 29.1875 0 L 29.1875 -64.59375 L 92.277344 -64.59375 L 92.277344 -74.679688 L 29.1875 -74.679688 L 29.1875 -129.617188 L 109.875 -129.617188 L 109.875 -139.492188 Z M 19.527344 -139.492188 "/></g></g></g><g fill="#000000" fill-opacity="1"><g transform="translate(254.51662, 445.205843)"><g><path d="M 22.105469 -139.492188 L 22.105469 0 L 31.761719 0 L 31.761719 -139.492188 Z M 22.105469 -139.492188 "/></g></g></g><g fill="#000000" fill-opacity="1"><g transform="translate(381.560289, 445.205843)"><g><path d="M 11.589844 -139.492188 L 11.589844 -129.617188 L 66.957031 -129.617188 L 66.957031 0 L 76.828125 0 L 76.828125 -129.617188 L 131.980469 -129.617188 L 131.980469 -139.492188 Z M 11.589844 -139.492188 "/></g></g></g><g fill="#000000" fill-opacity="1"><g transform="translate(598.307125, 445.205843)"><g><path d="M 95.066406 -128.546875 L 55.796875 -27.253906 L 20.816406 -139.492188 L 10.730469 -139.492188 L 54.9375 2.359375 L 95.066406 -101.507812 L 134.769531 2.359375 L 178.761719 -139.492188 L 168.460938 -139.492188 L 133.910156 -27.683594 Z M 95.066406 -128.546875 "/></g></g></g><g fill="#000000" fill-opacity="1"><g transform="translate(860.978526, 445.205843)"><g><path d="M 19.527344 -139.492188 L 19.527344 0 L 109.875 0 L 109.875 -10.085938 L 29.1875 -10.085938 L 29.1875 -64.808594 L 92.0625 -64.808594 L 92.0625 -74.679688 L 29.1875 -74.679688 L 29.1875 -129.617188 L 109.875 -129.617188 L 109.875 -139.492188 Z M 19.527344 -139.492188 "/></g></g></g><g fill="#000000" fill-opacity="1"><g transform="translate(1063.347045, 445.205843)"><g><path d="M 19.527344 -139.492188 L 19.527344 0 L 107.515625 0 L 107.515625 -9.65625 L 29.1875 -9.65625 L 29.1875 -139.492188 Z M 19.527344 -139.492188 "/></g></g></g><g fill="#000000" fill-opacity="1"><g transform="translate(1261.209019, 445.205843)"><g><path d="M 19.527344 -139.492188 L 19.527344 0 L 107.515625 0 L 107.515625 -9.65625 L 29.1875 -9.65625 L 29.1875 -139.492188 Z M 19.527344 -139.492188 "/></g></g></g><g fill="#000000" fill-opacity="1"><g transform="translate(61.287126, 532.478648)"><g><path d="M 6.257812 -13.695312 L 23.671875 -13.695312 L 23.671875 0 L 25.714844 0 L 25.714844 -29.476562 L 23.671875 -29.476562 L 23.671875 -15.78125 L 6.257812 -15.78125 L 6.257812 -29.476562 L 4.171875 -29.476562 L 4.171875 0 L 6.257812 0 Z M 6.257812 -13.695312 "/></g></g></g><g fill="#000000" fill-opacity="1"><g transform="translate(122.734739, 532.478648)"><g><path d="M 23.71875 -7.484375 L 27.027344 0 L 29.25 0 L 16.144531 -29.839844 L 2.265625 0 L 4.535156 0 L 8.027344 -7.484375 Z M 22.8125 -9.523438 L 8.980469 -9.523438 L 16.054688 -24.804688 Z M 22.8125 -9.523438 "/></g></g></g><g fill="#000000" fill-opacity="1"><g transform="translate(185.814847, 532.478648)"><g><path d="M 23.355469 -3.082031 C 24.398438 -4.082031 25.214844 -5.261719 25.757812 -6.667969 C 26.300781 -8.070312 26.621094 -9.570312 26.621094 -11.109375 L 26.621094 -29.476562 L 24.578125 -29.476562 L 24.578125 -11.109375 C 24.578125 -9.839844 24.308594 -8.617188 23.855469 -7.484375 C 23.398438 -6.304688 22.71875 -5.304688 21.902344 -4.488281 C 20.089844 -2.675781 17.914062 -1.769531 15.375 -1.769531 C 14.148438 -1.769531 12.96875 -1.996094 11.882812 -2.449219 C 10.746094 -2.902344 9.75 -3.582031 8.886719 -4.488281 C 8.027344 -5.304688 7.347656 -6.304688 6.894531 -7.484375 C 6.441406 -8.617188 6.210938 -9.839844 6.210938 -11.109375 L 6.210938 -29.476562 L 4.171875 -29.476562 L 4.171875 -11.109375 C 4.171875 -9.570312 4.445312 -8.070312 4.988281 -6.667969 C 5.53125 -5.261719 6.347656 -4.082031 7.4375 -3.082031 C 8.480469 -1.996094 9.703125 -1.132812 11.066406 -0.542969 C 12.425781 0.046875 13.875 0.316406 15.375 0.316406 C 16.914062 0.316406 18.320312 0.046875 19.679688 -0.542969 C 21.042969 -1.132812 22.265625 -1.996094 23.355469 -3.082031 Z M 23.355469 -3.082031 "/></g></g></g><g fill="#000000" fill-opacity="1"><g transform="translate(248.169402, 532.478648)"><g><path d="M 2.449219 -29.476562 L 2.449219 -27.390625 L 14.148438 -27.390625 L 14.148438 0 L 16.234375 0 L 16.234375 -27.390625 L 27.890625 -27.390625 L 27.890625 -29.476562 Z M 2.449219 -29.476562 "/></g></g></g><g fill="#000000" fill-opacity="1"><g transform="translate(310.070493, 532.478648)"><g><path d="M 4.125 -29.476562 L 4.125 0 L 23.21875 0 L 23.21875 -2.132812 L 6.167969 -2.132812 L 6.167969 -13.695312 L 19.453125 -13.695312 L 19.453125 -15.78125 L 6.167969 -15.78125 L 6.167969 -27.390625 L 23.21875 -27.390625 L 23.21875 -29.476562 Z M 4.125 -29.476562 "/></g></g></g><g fill="#000000" fill-opacity="1"><g transform="translate(368.933308, 532.478648)"><g/></g></g><g fill="#000000" fill-opacity="1"><g transform="translate(415.552345, 532.478648)"><g><path d="M 28.796875 -5.304688 L 27.164062 -6.574219 C 25.894531 -5.035156 24.398438 -3.855469 22.675781 -3.039062 C 20.953125 -2.175781 19.09375 -1.769531 17.1875 -1.769531 C 14.828125 -1.769531 12.699219 -2.3125 10.746094 -3.492188 C 8.796875 -4.625 7.257812 -6.210938 6.078125 -8.253906 C 4.898438 -10.25 4.308594 -12.425781 4.308594 -14.785156 C 4.308594 -17.097656 4.851562 -19.273438 6.03125 -21.269531 C 7.164062 -23.265625 8.753906 -24.898438 10.746094 -26.074219 C 12.699219 -27.210938 14.828125 -27.800781 17.1875 -27.800781 C 19 -27.800781 20.722656 -27.390625 22.355469 -26.664062 C 23.988281 -25.894531 25.441406 -24.851562 26.664062 -23.492188 L 28.253906 -24.898438 C 26.800781 -26.4375 25.078125 -27.664062 23.171875 -28.523438 C 21.269531 -29.386719 19.273438 -29.839844 17.1875 -29.839844 C 14.511719 -29.839844 12.015625 -29.160156 9.75 -27.800781 C 7.4375 -26.4375 5.625 -24.578125 4.261719 -22.3125 C 2.902344 -19.953125 2.265625 -17.460938 2.265625 -14.785156 C 2.265625 -12.0625 2.902344 -9.523438 4.261719 -7.210938 C 5.578125 -4.898438 7.390625 -3.082031 9.703125 -1.722656 C 12.015625 -0.363281 14.511719 0.316406 17.1875 0.316406 C 19.453125 0.316406 21.585938 -0.136719 23.625 -1.132812 C 25.621094 -2.132812 27.34375 -3.492188 28.796875 -5.304688 Z M 28.796875 -5.304688 "/></g></g></g><g fill="#000000" fill-opacity="1"><g transform="translate(478.179001, 532.478648)"><g><path d="M 30.113281 -7.210938 C 31.425781 -9.523438 32.105469 -12.015625 32.105469 -14.738281 C 32.105469 -17.460938 31.425781 -19.953125 30.113281 -22.265625 C 28.75 -24.578125 26.9375 -26.4375 24.671875 -27.800781 C 22.3125 -29.113281 19.816406 -29.792969 17.1875 -29.792969 C 14.464844 -29.792969 11.972656 -29.113281 9.703125 -27.800781 C 7.390625 -26.4375 5.578125 -24.625 4.261719 -22.3125 C 2.902344 -19.953125 2.265625 -17.460938 2.265625 -14.738281 C 2.265625 -12.015625 2.902344 -9.476562 4.261719 -7.164062 C 5.578125 -4.851562 7.390625 -3.039062 9.703125 -1.722656 C 12.015625 -0.363281 14.511719 0.316406 17.1875 0.316406 C 19.863281 0.316406 22.355469 -0.316406 24.625 -1.679688 C 26.890625 -3.039062 28.75 -4.851562 30.113281 -7.210938 Z M 28.296875 -21.269531 C 29.429688 -19.226562 30.019531 -17.050781 30.019531 -14.738281 C 30.019531 -12.378906 29.429688 -10.203125 28.296875 -8.207031 C 27.164062 -6.210938 25.621094 -4.671875 23.625 -3.539062 C 21.675781 -2.359375 19.546875 -1.769531 17.1875 -1.769531 C 14.828125 -1.769531 12.699219 -2.3125 10.746094 -3.492188 C 8.796875 -4.625 7.257812 -6.210938 6.078125 -8.253906 C 4.898438 -10.203125 4.308594 -12.378906 4.308594 -14.738281 C 4.308594 -17.050781 4.851562 -19.226562 6.03125 -21.222656 C 7.164062 -23.21875 8.753906 -24.804688 10.746094 -25.984375 C 12.699219 -27.117188 14.828125 -27.707031 17.1875 -27.707031 C 19.5 -27.707031 21.632812 -27.117188 23.582031 -25.984375 C 25.53125 -24.804688 27.117188 -23.265625 28.296875 -21.269531 Z M 28.296875 -21.269531 "/></g></g></g><g fill="#000000" fill-opacity="1"><g transform="translate(544.070646, 532.478648)"><g><path d="M 23.355469 -3.082031 C 24.398438 -4.082031 25.214844 -5.261719 25.757812 -6.667969 C 26.300781 -8.070312 26.621094 -9.570312 26.621094 -11.109375 L 26.621094 -29.476562 L 24.578125 -29.476562 L 24.578125 -11.109375 C 24.578125 -9.839844 24.308594 -8.617188 23.855469 -7.484375 C 23.398438 -6.304688 22.71875 -5.304688 21.902344 -4.488281 C 20.089844 -2.675781 17.914062 -1.769531 15.375 -1.769531 C 14.148438 -1.769531 12.96875 -1.996094 11.882812 -2.449219 C 10.746094 -2.902344 9.75 -3.582031 8.886719 -4.488281 C 8.027344 -5.304688 7.347656 -6.304688 6.894531 -7.484375 C 6.441406 -8.617188 6.210938 -9.839844 6.210938 -11.109375 L 6.210938 -29.476562 L 4.171875 -29.476562 L 4.171875 -11.109375 C 4.171875 -9.570312 4.445312 -8.070312 4.988281 -6.667969 C 5.53125 -5.261719 6.347656 -4.082031 7.4375 -3.082031 C 8.480469 -1.996094 9.703125 -1.132812 11.066406 -0.542969 C 12.425781 0.046875 13.875 0.316406 15.375 0.316406 C 16.914062 0.316406 18.320312 0.046875 19.679688 -0.542969 C 21.042969 -1.132812 22.265625 -1.996094 23.355469 -3.082031 Z M 23.355469 -3.082031 "/></g></g></g><g fill="#000000" fill-opacity="1"><g transform="translate(606.425225, 532.478648)"><g><path d="M 2.449219 -29.476562 L 2.449219 -27.390625 L 14.148438 -27.390625 L 14.148438 0 L 16.234375 0 L 16.234375 -27.390625 L 27.890625 -27.390625 L 27.890625 -29.476562 Z M 2.449219 -29.476562 "/></g></g></g><g fill="#000000" fill-opacity="1"><g transform="translate(668.326302, 532.478648)"><g><path d="M 23.355469 -3.082031 C 24.398438 -4.082031 25.214844 -5.261719 25.757812 -6.667969 C 26.300781 -8.070312 26.621094 -9.570312 26.621094 -11.109375 L 26.621094 -29.476562 L 24.578125 -29.476562 L 24.578125 -11.109375 C 24.578125 -9.839844 24.308594 -8.617188 23.855469 -7.484375 C 23.398438 -6.304688 22.71875 -5.304688 21.902344 -4.488281 C 20.089844 -2.675781 17.914062 -1.769531 15.375 -1.769531 C 14.148438 -1.769531 12.96875 -1.996094 11.882812 -2.449219 C 10.746094 -2.902344 9.75 -3.582031 8.886719 -4.488281 C 8.027344 -5.304688 7.347656 -6.304688 6.894531 -7.484375 C 6.441406 -8.617188 6.210938 -9.839844 6.210938 -11.109375 L 6.210938 -29.476562 L 4.171875 -29.476562 L 4.171875 -11.109375 C 4.171875 -9.570312 4.445312 -8.070312 4.988281 -6.667969 C 5.53125 -5.261719 6.347656 -4.082031 7.4375 -3.082031 C 8.480469 -1.996094 9.703125 -1.132812 11.066406 -0.542969 C 12.425781 0.046875 13.875 0.316406 15.375 0.316406 C 16.914062 0.316406 18.320312 0.046875 19.679688 -0.542969 C 21.042969 -1.132812 22.265625 -1.996094 23.355469 -3.082031 Z M 23.355469 -3.082031 "/></g></g></g><g fill="#000000" fill-opacity="1"><g transform="translate(730.680834, 532.478648)"><g><path d="M 21.539062 0 L 24.261719 0 L 13.605469 -12.925781 C 14.785156 -12.925781 15.78125 -12.96875 16.644531 -13.105469 C 17.460938 -13.195312 18.320312 -13.46875 19.183594 -13.875 C 20.589844 -14.464844 21.769531 -15.417969 22.765625 -16.777344 C 23.71875 -18.09375 24.214844 -19.546875 24.214844 -21.179688 C 24.214844 -22.222656 23.945312 -23.265625 23.492188 -24.261719 C 23.039062 -25.257812 22.355469 -26.121094 21.496094 -26.9375 C 20.589844 -27.753906 19.5 -28.34375 18.320312 -28.796875 C 17.097656 -29.25 15.78125 -29.476562 14.421875 -29.476562 L 4.125 -29.476562 L 4.125 0 L 6.167969 0 L 6.167969 -27.4375 L 14.421875 -27.4375 C 15.917969 -27.4375 17.277344 -27.117188 18.503906 -26.527344 C 19.679688 -25.894531 20.589844 -25.125 21.222656 -24.214844 C 21.859375 -23.265625 22.175781 -22.265625 22.175781 -21.179688 C 22.175781 -20 21.769531 -18.957031 21.042969 -17.957031 C 20.316406 -16.960938 19.410156 -16.234375 18.367188 -15.734375 C 17.007812 -15.148438 15.191406 -14.875 12.925781 -14.875 L 9.296875 -14.875 Z M 21.539062 0 "/></g></g></g><g fill="#000000" fill-opacity="1"><g transform="translate(790.269225, 532.478648)"><g><path d="M 4.125 -29.476562 L 4.125 0 L 23.21875 0 L 23.21875 -2.132812 L 6.167969 -2.132812 L 6.167969 -13.695312 L 19.453125 -13.695312 L 19.453125 -15.78125 L 6.167969 -15.78125 L 6.167969 -27.390625 L 23.21875 -27.390625 L 23.21875 -29.476562 Z M 4.125 -29.476562 "/></g></g></g></svg>