   <svg xmlns="http://www.w3.org/2000/svg"
            width="1000" zoomAndPan="magnify" viewBox="0 0 1440 809.999993"
            height="255" preserveAspectRatio="xMidYMid meet" version="1.0">
            <defs><g /></defs>
            <g fill={primary} fill-opacity="1"><g transform="translate(161.448073, 443.986961)"><g>
                <path d="M 16.378906 -117 L 16.378906 0 L 24.480469 0 L 24.480469 -54.179688 L 77.398438 -54.179688 L 77.398438 -62.640625 L 24.480469 -62.640625 L 24.480469 -108.71875 L 92.160156 -108.71875 L 92.160156 -117 Z M 16.378906 -117 " /></g></g></g>
            <g fill={primary} fill-opacity="1"><g transform="translate(329.568065, 443.986961)">
                <g><path d="M 18.539062 -117 L 18.539062 0 L 26.640625 0 L 26.640625 -117 Z M 18.539062 -117 " /></g></g></g>
            <g fill={primary} fill-opacity="1"><g transform="translate(436.12805, 443.986961)">
                <g><path d="M 9.71875 -117 L 9.71875 -108.71875 L 56.160156 -108.71875 L 56.160156 0 L 64.441406 0 L 64.441406 -108.71875 L 110.699219 -108.71875 L 110.699219 -117 Z M 9.71875 -117 " /></g></g></g>
            <g fill={primary} fill-opacity="1">
                <g transform="translate(617.928056, 443.986961)"><g><path d="M 79.738281 -107.820312 L 46.800781 -22.859375 L 17.460938 -117 L 9 -117 L 46.078125 1.980469 L 79.738281 -85.140625 L 113.039062 1.980469 L 149.941406 -117 L 141.300781 -117 L 112.320312 -23.21875 Z M 79.738281 -107.820312 " /></g></g></g>
            <g fill={primary} fill-opacity="1"><g transform="translate(838.248052, 443.986961)"><g>
                <path d="M 16.378906 -117 L 16.378906 0 L 92.160156 0 L 92.160156 -8.460938 L 24.480469 -8.460938 L 24.480469 -54.359375 L 77.21875 -54.359375 L 77.21875 -62.640625 L 24.480469 -62.640625 L 24.480469 -108.71875 L 92.160156 -108.71875 L 92.160156 -117 Z M 16.378906 -117 " /></g></g></g>
            <g fill={primary} fill-opacity="1"><g transform="translate(1007.988006, 443.986961)"><g><path d="M 16.378906 -117 L 16.378906 0 L 90.179688 0 L 90.179688 -8.101562 L 24.480469 -8.101562 L 24.480469 -117 Z M 16.378906 -117 " /></g></g></g>
            <g fill={primary} fill-opacity="1"><g transform="translate(1173.94802, 443.986961)"><g><path d="M 16.378906 -117 L 16.378906 0 L 90.179688 0 L 90.179688 -8.101562 L 24.480469 -8.101562 L 24.480469 -117 Z M 16.378906 -117 " /></g></g></g>
            <g fill={primary} fill-opacity="1"><g transform="translate(378.749987, 537.816857)"><g><path d="M 5.25 -11.484375 L 19.851562 -11.484375 L 19.851562 0 L 21.5625 0 L 21.5625 -24.722656 L 19.851562 -24.722656 L 19.851562 -13.234375 L 5.25 -13.234375 L 5.25 -24.722656 L 3.5 -24.722656 L 3.5 0 L 5.25 0 Z M 5.25 -11.484375 " /></g></g></g>
            <g fill={primary} fill-opacity="1"><g transform="translate(430.284607, 537.816857)"><g><path d="M 19.890625 -6.273438 L 22.667969 0 L 24.53125 0 L 13.539062 -25.023438 L 1.902344 0 L 3.804688 0 L 6.730469 -6.273438 Z M 19.128906 -7.988281 L 7.53125 -7.988281 L 13.464844 -20.804688 Z M 19.128906 -7.988281 " /></g></g></g><g fill={primary} fill-opacity="1"><g transform="translate(483.188203, 537.816857)"><g><path d="M 19.585938 -2.585938 C 20.460938 -3.421875 21.144531 -4.410156 21.601562 -5.589844 C 22.058594 -6.769531 22.324219 -8.023438 22.324219 -9.316406 L 22.324219 -24.722656 L 20.613281 -24.722656 L 20.613281 -9.316406 C 20.613281 -8.253906 20.386719 -7.226562 20.003906 -6.273438 C 19.625 -5.285156 19.054688 -4.449219 18.371094 -3.765625 C 16.847656 -2.242188 15.023438 -1.484375 12.894531 -1.484375 C 11.867188 -1.484375 10.878906 -1.671875 9.964844 -2.054688 C 9.015625 -2.433594 8.175781 -3.003906 7.453125 -3.765625 C 6.730469 -4.449219 6.160156 -5.285156 5.78125 -6.273438 C 5.402344 -7.226562 5.210938 -8.253906 5.210938 -9.316406 L 5.210938 -24.722656 L 3.5 -24.722656 L 3.5 -9.316406 C 3.5 -8.023438 3.726562 -6.769531 4.183594 -5.589844 C 4.640625 -4.410156 5.324219 -3.421875 6.238281 -2.585938 C 7.113281 -1.671875 8.140625 -0.949219 9.28125 -0.457031 C 10.421875 0.0390625 11.636719 0.265625 12.894531 0.265625 C 14.1875 0.265625 15.363281 0.0390625 16.507812 -0.457031 C 17.648438 -0.949219 18.675781 -1.671875 19.585938 -2.585938 Z M 19.585938 -2.585938 " /></g></g></g><g fill={primary} fill-opacity="1"><g transform="translate(535.483363, 537.816857)"><g><path d="M 2.054688 -24.722656 L 2.054688 -22.972656 L 11.867188 -22.972656 L 11.867188 0 L 13.617188 0 L 13.617188 -22.972656 L 23.390625 -22.972656 L 23.390625 -24.722656 Z M 2.054688 -24.722656 " /></g></g></g><g fill={primary} fill-opacity="1"><g transform="translate(587.398247, 537.816857)"><g><path d="M 3.460938 -24.722656 L 3.460938 0 L 19.472656 0 L 19.472656 -1.789062 L 5.171875 -1.789062 L 5.171875 -11.484375 L 16.316406 -11.484375 L 16.316406 -13.234375 L 5.171875 -13.234375 L 5.171875 -22.972656 L 19.472656 -22.972656 L 19.472656 -24.722656 Z M 3.460938 -24.722656 " /></g></g></g><g fill={primary} fill-opacity="1"><g transform="translate(636.76531, 537.816857)"><g /></g></g><g fill={primary} fill-opacity="1"><g transform="translate(675.865009, 537.816857)"><g><path d="M 24.152344 -4.449219 L 22.78125 -5.515625 C 21.714844 -4.222656 20.460938 -3.234375 19.015625 -2.546875 C 17.570312 -1.824219 16.011719 -1.484375 14.414062 -1.484375 C 12.4375 -1.484375 10.648438 -1.941406 9.015625 -2.929688 C 7.378906 -3.878906 6.085938 -5.210938 5.097656 -6.921875 C 4.109375 -8.59375 3.613281 -10.421875 3.613281 -12.398438 C 3.613281 -14.339844 4.070312 -16.164062 5.058594 -17.835938 C 6.007812 -19.511719 7.339844 -20.878906 9.015625 -21.867188 C 10.648438 -22.820312 12.4375 -23.3125 14.414062 -23.3125 C 15.9375 -23.3125 17.378906 -22.972656 18.75 -22.363281 C 20.121094 -21.714844 21.335938 -20.84375 22.363281 -19.699219 L 23.695312 -20.878906 C 22.476562 -22.171875 21.03125 -23.199219 19.433594 -23.921875 C 17.835938 -24.644531 16.164062 -25.023438 14.414062 -25.023438 C 12.171875 -25.023438 10.078125 -24.453125 8.175781 -23.3125 C 6.238281 -22.171875 4.714844 -20.613281 3.574219 -18.710938 C 2.433594 -16.734375 1.902344 -14.640625 1.902344 -12.398438 C 1.902344 -10.117188 2.433594 -7.988281 3.574219 -6.046875 C 4.679688 -4.109375 6.199219 -2.585938 8.140625 -1.445312 C 10.078125 -0.304688 12.171875 0.265625 14.414062 0.265625 C 16.316406 0.265625 18.101562 -0.113281 19.816406 -0.949219 C 21.488281 -1.789062 22.933594 -2.929688 24.152344 -4.449219 Z M 24.152344 -4.449219 " /></g></g></g><g fill={primary} fill-opacity="1"><g transform="translate(728.38833, 537.816857)"><g><path d="M 25.253906 -6.046875 C 26.355469 -7.988281 26.925781 -10.078125 26.925781 -12.359375 C 26.925781 -14.640625 26.355469 -16.734375 25.253906 -18.675781 C 24.113281 -20.613281 22.589844 -22.171875 20.691406 -23.3125 C 18.710938 -24.417969 16.621094 -24.988281 14.414062 -24.988281 C 12.132812 -24.988281 10.039062 -24.417969 8.140625 -23.3125 C 6.199219 -22.171875 4.679688 -20.652344 3.574219 -18.710938 C 2.433594 -16.734375 1.902344 -14.640625 1.902344 -12.359375 C 1.902344 -10.078125 2.433594 -7.949219 3.574219 -6.007812 C 4.679688 -4.070312 6.199219 -2.546875 8.140625 -1.445312 C 10.078125 -0.304688 12.171875 0.265625 14.414062 0.265625 C 16.660156 0.265625 18.75 -0.265625 20.652344 -1.40625 C 22.554688 -2.546875 24.113281 -4.070312 25.253906 -6.046875 Z M 23.730469 -17.835938 C 24.683594 -16.125 25.175781 -14.300781 25.175781 -12.359375 C 25.175781 -10.382812 24.683594 -8.558594 23.730469 -6.882812 C 22.78125 -5.210938 21.488281 -3.917969 19.816406 -2.964844 C 18.179688 -1.976562 16.390625 -1.484375 14.414062 -1.484375 C 12.4375 -1.484375 10.648438 -1.941406 9.015625 -2.929688 C 7.378906 -3.878906 6.085938 -5.210938 5.097656 -6.921875 C 4.109375 -8.558594 3.613281 -10.382812 3.613281 -12.359375 C 3.613281 -14.300781 4.070312 -16.125 5.058594 -17.800781 C 6.007812 -19.472656 7.339844 -20.804688 9.015625 -21.792969 C 10.648438 -22.742188 12.4375 -23.238281 14.414062 -23.238281 C 16.355469 -23.238281 18.140625 -22.742188 19.777344 -21.792969 C 21.414062 -20.804688 22.742188 -19.511719 23.730469 -17.835938 Z M 23.730469 -17.835938 " />
            </g></g></g>
            <g fill={primary} fill-opacity="1">
                <g transform="translate(783.649626, 537.816857)"><g><path d="M 19.585938 -2.585938 C 20.460938 -3.421875 21.144531 -4.410156 21.601562 -5.589844 C 22.058594 -6.769531 22.324219 -8.023438 22.324219 -9.316406 L 22.324219 -24.722656 L 20.613281 -24.722656 L 20.613281 -9.316406 C 20.613281 -8.253906 20.386719 -7.226562 20.003906 -6.273438 C 19.625 -5.285156 19.054688 -4.449219 18.371094 -3.765625 C 16.847656 -2.242188 15.023438 -1.484375 12.894531 -1.484375 C 11.867188 -1.484375 10.878906 -1.671875 9.964844 -2.054688 C 9.015625 -2.433594 8.175781 -3.003906 7.453125 -3.765625 C 6.730469 -4.449219 6.160156 -5.285156 5.78125 -6.273438 C 5.402344 -7.226562 5.210938 -8.253906 5.210938 -9.316406 L 5.210938 -24.722656 L 3.5 -24.722656 L 3.5 -9.316406 C 3.5 -8.023438 3.726562 -6.769531 4.183594 -5.589844 C 4.640625 -4.410156 5.324219 -3.421875 6.238281 -2.585938 C 7.113281 -1.671875 8.140625 -0.949219 9.28125 -0.457031 C 10.421875 0.0390625 11.636719 0.265625 12.894531 0.265625 C 14.1875 0.265625 15.363281 0.0390625 16.507812 -0.457031 C 17.648438 -0.949219 18.675781 -1.671875 19.585938 -2.585938 Z M 19.585938 -2.585938 " /></g></g></g><g fill={primary} fill-opacity="1"><g transform="translate(835.944774, 537.816857)"><g><path d="M 2.054688 -24.722656 L 2.054688 -22.972656 L 11.867188 -22.972656 L 11.867188 0 L 13.617188 0 L 13.617188 -22.972656 L 23.390625 -22.972656 L 23.390625 -24.722656 Z M 2.054688 -24.722656 " /></g></g></g><g fill={primary} fill-opacity="1"><g transform="translate(887.859658, 537.816857)"><g><path d="M 19.585938 -2.585938 C 20.460938 -3.421875 21.144531 -4.410156 21.601562 -5.589844 C 22.058594 -6.769531 22.324219 -8.023438 22.324219 -9.316406 L 22.324219 -24.722656 L 20.613281 -24.722656 L 20.613281 -9.316406 C 20.613281 -8.253906 20.386719 -7.226562 20.003906 -6.273438 C 19.625 -5.285156 19.054688 -4.449219 18.371094 -3.765625 C 16.847656 -2.242188 15.023438 -1.484375 12.894531 -1.484375 C 11.867188 -1.484375 10.878906 -1.671875 9.964844 -2.054688 C 9.015625 -2.433594 8.175781 -3.003906 7.453125 -3.765625 C 6.730469 -4.449219 6.160156 -5.285156 5.78125 -6.273438 C 5.402344 -7.226562 5.210938 -8.253906 5.210938 -9.316406 L 5.210938 -24.722656 L 3.5 -24.722656 L 3.5 -9.316406 C 3.5 -8.023438 3.726562 -6.769531 4.183594 -5.589844 C 4.640625 -4.410156 5.324219 -3.421875 6.238281 -2.585938 C 7.113281 -1.671875 8.140625 -0.949219 9.28125 -0.457031 C 10.421875 0.0390625 11.636719 0.265625 12.894531 0.265625 C 14.1875 0.265625 15.363281 0.0390625 16.507812 -0.457031 C 17.648438 -0.949219 18.675781 -1.671875 19.585938 -2.585938 Z M 19.585938 -2.585938 " /></g></g></g><g fill={primary} fill-opacity="1"><g transform="translate(940.154807, 537.816857)"><g><path d="M 18.066406 0 L 20.347656 0 L 11.410156 -10.839844 C 12.398438 -10.839844 13.234375 -10.878906 13.957031 -10.992188 C 14.640625 -11.066406 15.363281 -11.296875 16.085938 -11.636719 C 17.265625 -12.132812 18.253906 -12.929688 19.09375 -14.070312 C 19.890625 -15.175781 20.308594 -16.390625 20.308594 -17.761719 C 20.308594 -18.636719 20.082031 -19.511719 19.699219 -20.347656 C 19.320312 -21.183594 18.75 -21.90625 18.027344 -22.589844 C 17.265625 -23.277344 16.355469 -23.769531 15.363281 -24.152344 C 14.339844 -24.53125 13.234375 -24.722656 12.09375 -24.722656 L 3.460938 -24.722656 L 3.460938 0 L 5.171875 0 L 5.171875 -23.007812 L 12.09375 -23.007812 C 13.347656 -23.007812 14.492188 -22.742188 15.515625 -22.25 C 16.507812 -21.714844 17.265625 -21.070312 17.800781 -20.308594 C 18.332031 -19.511719 18.597656 -18.675781 18.597656 -17.761719 C 18.597656 -16.773438 18.253906 -15.898438 17.648438 -15.0625 C 17.039062 -14.222656 16.277344 -13.617188 15.402344 -13.199219 C 14.261719 -12.703125 12.742188 -12.476562 10.839844 -12.476562 L 7.796875 -12.476562 Z M 18.066406 0 " /></g></g></g><g fill={primary} fill-opacity="1"><g transform="translate(990.130329, 537.816857)"><g><path d="M 3.460938 -24.722656 L 3.460938 0 L 19.472656 0 L 19.472656 -1.789062 L 5.171875 -1.789062 L 5.171875 -11.484375 L 16.316406 -11.484375 L 16.316406 -13.234375 L 5.171875 -13.234375 L 5.171875 -22.972656 L 19.472656 -22.972656 L 19.472656 -24.722656 Z M 3.460938 -24.722656 " /></g></g></g></svg>
        