<svg xmlns="http://www.w3.org/2000/svg" xmlns:xlink="http://www.w3.org/1999/xlink" width="1920" zoomAndPan="magnify" viewBox="0 0 1440 809.999993" height="1080" preserveAspectRatio="xMidYMid meet" version="1.0"><defs><g/></defs><g fill="#000000" fill-opacity="1"><g transform="translate(76.38701, 428.449557)"><g><path d="M 18.875 -134.816406 L 18.875 0 L 28.207031 0 L 28.207031 -62.429688 L 89.1875 -62.429688 L 89.1875 -72.179688 L 28.207031 -72.179688 L 28.207031 -125.277344 L 106.195312 -125.277344 L 106.195312 -134.816406 Z M 18.875 -134.816406 "/></g></g></g><g fill="#000000" fill-opacity="1"><g transform="translate(270.109756, 428.449557)"><g><path d="M 21.363281 -134.816406 L 21.363281 0 L 30.695312 0 L 30.695312 -134.816406 Z M 21.363281 -134.816406 "/></g></g></g><g fill="#000000" fill-opacity="1"><g transform="translate(392.897609, 428.449557)"><g><path d="M 11.199219 -134.816406 L 11.199219 -125.277344 L 64.710938 -125.277344 L 64.710938 0 L 74.253906 0 L 74.253906 -125.277344 L 127.558594 -125.277344 L 127.558594 -134.816406 Z M 11.199219 -134.816406 "/></g></g></g><g fill="#000000" fill-opacity="1"><g transform="translate(602.383679, 428.449557)"><g><path d="M 91.882812 -124.238281 L 53.925781 -26.339844 L 20.117188 -134.816406 L 10.371094 -134.816406 L 53.097656 2.28125 L 91.882812 -98.105469 L 130.253906 2.28125 L 172.773438 -134.816406 L 162.820312 -134.816406 L 129.425781 -26.757812 Z M 91.882812 -124.238281 "/></g></g></g><g fill="#000000" fill-opacity="1"><g transform="translate(856.255894, 428.449557)"><g><path d="M 18.875 -134.816406 L 18.875 0 L 106.195312 0 L 106.195312 -9.75 L 28.207031 -9.75 L 28.207031 -62.636719 L 88.980469 -62.636719 L 88.980469 -72.179688 L 28.207031 -72.179688 L 28.207031 -125.277344 L 106.195312 -125.277344 L 106.195312 -134.816406 Z M 18.875 -134.816406 "/></g></g></g><g fill="#000000" fill-opacity="1"><g transform="translate(1051.845304, 428.449557)"><g><path d="M 18.875 -134.816406 L 18.875 0 L 103.914062 0 L 103.914062 -9.332031 L 28.207031 -9.332031 L 28.207031 -134.816406 Z M 18.875 -134.816406 "/></g></g></g><g fill="#000000" fill-opacity="1"><g transform="translate(1243.079132, 428.449557)"><g><path d="M 18.875 -134.816406 L 18.875 0 L 103.914062 0 L 103.914062 -9.332031 L 28.207031 -9.332031 L 28.207031 -134.816406 Z M 18.875 -134.816406 "/></g></g></g><g fill="#000000" fill-opacity="1"><g transform="translate(326.781523, 536.568689)"><g><path d="M 6.046875 -13.234375 L 22.875 -13.234375 L 22.875 0 L 24.847656 0 L 24.847656 -28.484375 L 22.875 -28.484375 L 22.875 -15.25 L 6.046875 -15.25 L 6.046875 -28.484375 L 4.03125 -28.484375 L 4.03125 0 L 6.046875 0 Z M 6.046875 -13.234375 "/></g></g></g><g fill="#000000" fill-opacity="1"><g transform="translate(386.164276, 536.568689)"><g><path d="M 22.921875 -7.230469 L 26.121094 0 L 28.265625 0 L 15.601562 -28.835938 L 2.191406 0 L 4.382812 0 L 7.757812 -7.230469 Z M 22.042969 -9.203125 L 8.675781 -9.203125 L 15.515625 -23.972656 Z M 22.042969 -9.203125 "/></g></g></g><g fill="#000000" fill-opacity="1"><g transform="translate(447.124486, 536.568689)"><g><path d="M 22.570312 -2.980469 C 23.578125 -3.945312 24.367188 -5.082031 24.890625 -6.441406 C 25.417969 -7.800781 25.726562 -9.246094 25.726562 -10.738281 L 25.726562 -28.484375 L 23.753906 -28.484375 L 23.753906 -10.738281 C 23.753906 -9.511719 23.488281 -8.328125 23.050781 -7.230469 C 22.613281 -6.089844 21.957031 -5.128906 21.167969 -4.339844 C 19.414062 -2.585938 17.3125 -1.710938 14.855469 -1.710938 C 13.671875 -1.710938 12.535156 -1.929688 11.480469 -2.367188 C 10.386719 -2.804688 9.421875 -3.460938 8.589844 -4.339844 C 7.757812 -5.128906 7.097656 -6.089844 6.660156 -7.230469 C 6.222656 -8.328125 6.003906 -9.511719 6.003906 -10.738281 L 6.003906 -28.484375 L 4.03125 -28.484375 L 4.03125 -10.738281 C 4.03125 -9.246094 4.292969 -7.800781 4.820312 -6.441406 C 5.347656 -5.082031 6.136719 -3.945312 7.1875 -2.980469 C 8.195312 -1.929688 9.378906 -1.09375 10.691406 -0.527344 C 12.007812 0.0429688 13.410156 0.308594 14.855469 0.308594 C 16.347656 0.308594 17.703125 0.0429688 19.019531 -0.527344 C 20.335938 -1.09375 21.519531 -1.929688 22.570312 -2.980469 Z M 22.570312 -2.980469 "/></g></g></g><g fill="#000000" fill-opacity="1"><g transform="translate(507.383601, 536.568689)"><g><path d="M 2.367188 -28.484375 L 2.367188 -26.46875 L 13.671875 -26.46875 L 13.671875 0 L 15.6875 0 L 15.6875 -26.46875 L 26.953125 -26.46875 L 26.953125 -28.484375 Z M 2.367188 -28.484375 "/></g></g></g><g fill="#000000" fill-opacity="1"><g transform="translate(567.204529, 536.568689)"><g><path d="M 3.988281 -28.484375 L 3.988281 0 L 22.4375 0 L 22.4375 -2.058594 L 5.960938 -2.058594 L 5.960938 -13.234375 L 18.800781 -13.234375 L 18.800781 -15.25 L 5.960938 -15.25 L 5.960938 -26.46875 L 22.4375 -26.46875 L 22.4375 -28.484375 Z M 3.988281 -28.484375 "/></g></g></g><g fill="#000000" fill-opacity="1"><g transform="translate(624.089632, 536.568689)"><g/></g></g><g fill="#000000" fill-opacity="1"><g transform="translate(669.143769, 536.568689)"><g><path d="M 27.828125 -5.128906 L 26.25 -6.355469 C 25.023438 -4.863281 23.578125 -3.726562 21.914062 -2.9375 C 20.246094 -2.105469 18.449219 -1.710938 16.609375 -1.710938 C 14.332031 -1.710938 12.269531 -2.234375 10.386719 -3.375 C 8.5 -4.46875 7.011719 -6.003906 5.871094 -7.976562 C 4.734375 -9.90625 4.164062 -12.007812 4.164062 -14.285156 C 4.164062 -16.523438 4.6875 -18.625 5.828125 -20.554688 C 6.925781 -22.480469 8.457031 -24.058594 10.386719 -25.199219 C 12.269531 -26.292969 14.332031 -26.863281 16.609375 -26.863281 C 18.363281 -26.863281 20.027344 -26.46875 21.605469 -25.769531 C 23.183594 -25.023438 24.585938 -24.015625 25.769531 -22.699219 L 27.300781 -24.058594 C 25.898438 -25.550781 24.234375 -26.734375 22.394531 -27.566406 C 20.554688 -28.398438 18.625 -28.835938 16.609375 -28.835938 C 14.023438 -28.835938 11.613281 -28.179688 9.421875 -26.863281 C 7.1875 -25.550781 5.433594 -23.753906 4.121094 -21.5625 C 2.804688 -19.28125 2.191406 -16.871094 2.191406 -14.285156 C 2.191406 -11.65625 2.804688 -9.203125 4.121094 -6.96875 C 5.390625 -4.734375 7.144531 -2.980469 9.378906 -1.664062 C 11.613281 -0.351562 14.023438 0.308594 16.609375 0.308594 C 18.800781 0.308594 20.859375 -0.132812 22.832031 -1.09375 C 24.761719 -2.058594 26.425781 -3.375 27.828125 -5.128906 Z M 27.828125 -5.128906 "/></g></g></g><g fill="#000000" fill-opacity="1"><g transform="translate(729.66579, 536.568689)"><g><path d="M 29.097656 -6.96875 C 30.371094 -9.203125 31.027344 -11.613281 31.027344 -14.242188 C 31.027344 -16.871094 30.371094 -19.28125 29.097656 -21.519531 C 27.785156 -23.753906 26.03125 -25.550781 23.839844 -26.863281 C 21.5625 -28.136719 19.152344 -28.792969 16.609375 -28.792969 C 13.980469 -28.792969 11.570312 -28.136719 9.378906 -26.863281 C 7.144531 -25.550781 5.390625 -23.796875 4.121094 -21.5625 C 2.804688 -19.28125 2.191406 -16.871094 2.191406 -14.242188 C 2.191406 -11.613281 2.804688 -9.160156 4.121094 -6.925781 C 5.390625 -4.6875 7.144531 -2.9375 9.378906 -1.664062 C 11.613281 -0.351562 14.023438 0.308594 16.609375 0.308594 C 19.195312 0.308594 21.605469 -0.308594 23.796875 -1.621094 C 25.988281 -2.9375 27.785156 -4.6875 29.097656 -6.96875 Z M 27.347656 -20.554688 C 28.441406 -18.582031 29.011719 -16.476562 29.011719 -14.242188 C 29.011719 -11.964844 28.441406 -9.859375 27.347656 -7.933594 C 26.25 -6.003906 24.761719 -4.515625 22.832031 -3.417969 C 20.949219 -2.277344 18.886719 -1.710938 16.609375 -1.710938 C 14.332031 -1.710938 12.269531 -2.234375 10.386719 -3.375 C 8.5 -4.46875 7.011719 -6.003906 5.871094 -7.976562 C 4.734375 -9.859375 4.164062 -11.964844 4.164062 -14.242188 C 4.164062 -16.476562 4.6875 -18.582031 5.828125 -20.511719 C 6.925781 -22.4375 8.457031 -23.972656 10.386719 -25.113281 C 12.269531 -26.207031 14.332031 -26.777344 16.609375 -26.777344 C 18.84375 -26.777344 20.902344 -26.207031 22.789062 -25.113281 C 24.671875 -23.972656 26.207031 -22.480469 27.347656 -20.554688 Z M 27.347656 -20.554688 "/></g></g></g><g fill="#000000" fill-opacity="1"><g transform="translate(793.342751, 536.568689)"><g><path d="M 22.570312 -2.980469 C 23.578125 -3.945312 24.367188 -5.082031 24.890625 -6.441406 C 25.417969 -7.800781 25.726562 -9.246094 25.726562 -10.738281 L 25.726562 -28.484375 L 23.753906 -28.484375 L 23.753906 -10.738281 C 23.753906 -9.511719 23.488281 -8.328125 23.050781 -7.230469 C 22.613281 -6.089844 21.957031 -5.128906 21.167969 -4.339844 C 19.414062 -2.585938 17.3125 -1.710938 14.855469 -1.710938 C 13.671875 -1.710938 12.535156 -1.929688 11.480469 -2.367188 C 10.386719 -2.804688 9.421875 -3.460938 8.589844 -4.339844 C 7.757812 -5.128906 7.097656 -6.089844 6.660156 -7.230469 C 6.222656 -8.328125 6.003906 -9.511719 6.003906 -10.738281 L 6.003906 -28.484375 L 4.03125 -28.484375 L 4.03125 -10.738281 C 4.03125 -9.246094 4.292969 -7.800781 4.820312 -6.441406 C 5.347656 -5.082031 6.136719 -3.945312 7.1875 -2.980469 C 8.195312 -1.929688 9.378906 -1.09375 10.691406 -0.527344 C 12.007812 0.0429688 13.410156 0.308594 14.855469 0.308594 C 16.347656 0.308594 17.703125 0.0429688 19.019531 -0.527344 C 20.335938 -1.09375 21.519531 -1.929688 22.570312 -2.980469 Z M 22.570312 -2.980469 "/></g></g></g><g fill="#000000" fill-opacity="1"><g transform="translate(853.601853, 536.568689)"><g><path d="M 2.367188 -28.484375 L 2.367188 -26.46875 L 13.671875 -26.46875 L 13.671875 0 L 15.6875 0 L 15.6875 -26.46875 L 26.953125 -26.46875 L 26.953125 -28.484375 Z M 2.367188 -28.484375 "/></g></g></g><g fill="#000000" fill-opacity="1"><g transform="translate(913.422781, 536.568689)"><g><path d="M 22.570312 -2.980469 C 23.578125 -3.945312 24.367188 -5.082031 24.890625 -6.441406 C 25.417969 -7.800781 25.726562 -9.246094 25.726562 -10.738281 L 25.726562 -28.484375 L 23.753906 -28.484375 L 23.753906 -10.738281 C 23.753906 -9.511719 23.488281 -8.328125 23.050781 -7.230469 C 22.613281 -6.089844 21.957031 -5.128906 21.167969 -4.339844 C 19.414062 -2.585938 17.3125 -1.710938 14.855469 -1.710938 C 13.671875 -1.710938 12.535156 -1.929688 11.480469 -2.367188 C 10.386719 -2.804688 9.421875 -3.460938 8.589844 -4.339844 C 7.757812 -5.128906 7.097656 -6.089844 6.660156 -7.230469 C 6.222656 -8.328125 6.003906 -9.511719 6.003906 -10.738281 L 6.003906 -28.484375 L 4.03125 -28.484375 L 4.03125 -10.738281 C 4.03125 -9.246094 4.292969 -7.800781 4.820312 -6.441406 C 5.347656 -5.082031 6.136719 -3.945312 7.1875 -2.980469 C 8.195312 -1.929688 9.378906 -1.09375 10.691406 -0.527344 C 12.007812 0.0429688 13.410156 0.308594 14.855469 0.308594 C 16.347656 0.308594 17.703125 0.0429688 19.019531 -0.527344 C 20.335938 -1.09375 21.519531 -1.929688 22.570312 -2.980469 Z M 22.570312 -2.980469 "/></g></g></g><g fill="#000000" fill-opacity="1"><g transform="translate(973.681883, 536.568689)"><g><path d="M 20.816406 0 L 23.445312 0 L 13.148438 -12.488281 C 14.285156 -12.488281 15.25 -12.535156 16.082031 -12.664062 C 16.871094 -12.753906 17.703125 -13.015625 18.539062 -13.410156 C 19.894531 -13.980469 21.035156 -14.898438 22 -16.214844 C 22.921875 -17.484375 23.402344 -18.886719 23.402344 -20.464844 C 23.402344 -21.472656 23.140625 -22.480469 22.699219 -23.445312 C 22.261719 -24.410156 21.605469 -25.242188 20.773438 -26.03125 C 19.894531 -26.820312 18.84375 -27.390625 17.703125 -27.828125 C 16.523438 -28.265625 15.25 -28.484375 13.9375 -28.484375 L 3.988281 -28.484375 L 3.988281 0 L 5.960938 0 L 5.960938 -26.515625 L 13.9375 -26.515625 C 15.382812 -26.515625 16.695312 -26.207031 17.878906 -25.636719 C 19.019531 -25.023438 19.894531 -24.277344 20.511719 -23.402344 C 21.125 -22.480469 21.429688 -21.519531 21.429688 -20.464844 C 21.429688 -19.328125 21.035156 -18.320312 20.335938 -17.355469 C 19.632812 -16.390625 18.757812 -15.6875 17.75 -15.207031 C 16.433594 -14.636719 14.679688 -14.375 12.488281 -14.375 L 8.984375 -14.375 Z M 20.816406 0 "/></g></g></g><g fill="#000000" fill-opacity="1"><g transform="translate(1031.268106, 536.568689)"><g><path d="M 3.988281 -28.484375 L 3.988281 0 L 22.4375 0 L 22.4375 -2.058594 L 5.960938 -2.058594 L 5.960938 -13.234375 L 18.800781 -13.234375 L 18.800781 -15.25 L 5.960938 -15.25 L 5.960938 -26.46875 L 22.4375 -26.46875 L 22.4375 -28.484375 Z M 3.988281 -28.484375 "/></g></g></g></svg>